PathFileType	4	(X/Y/Z)	C:\Users\WrightLab\Desktop\Jo\P5V32.trc
DataRate	CameraRate	NumFrames	NumMarkers	Units	OrigDataRate	OrigDataStartFrame	OrigNumFrames
100.00	100.00	      24	19	mm	100.00	138	      1100
Frame#	Time	Headset_Front			Headset_Back			Headset_Left			Headset_Right			Left_Shoulder			Right_Shoulder			Sternum			C7			Left Elbow			Right Elbow			Left Wrist			Right Wrist			Left ASIS			Right ASIS			S2			Left Knee			Right Knee			Left Ankle			Right Ankle			
		X1	Y1	Z1	X2	Y2	Z2	X3	Y3	Z3	X4	Y4	Z4	X5	Y5	Z5	X6	Y6	Z6	X7	Y7	Z7	X8	Y8	Z8	X9	Y9	Z9	X10	Y10	Z10	X11	Y11	Z11	X12	Y12	Z12	X13	Y13	Z13	X14	Y14	Z14	X15	Y15	Z15	X16	Y16	Z16	X17	Y17	Z17	X18	Y18	Z18	X19	Y19	Z19	

138	1.370																												-371.89630	1241.96130	-1045.24670				-290.73911	1243.42676	-815.59369				-213.56532	937.17383	-1105.91541				104.74806	484.80399	-1193.47339	-282.49387	468.40433	-1183.77771				-244.70853	73.19853	-1285.98596	
139	1.380																												-371.96225	1241.60449	-1044.02502				-289.79037	1244.64050	-815.22247				-213.10654	937.02313	-1105.33887				105.16822	485.20953	-1194.01904	-282.14441	468.88626	-1182.57727				-244.69281	73.18349	-1285.98230	
140	1.390																												-371.77893	1241.51514	-1043.56604				-289.22092	1244.98059	-814.96368				-212.72046	937.01849	-1104.00293				105.82838	485.17245	-1195.16394	-282.75870	469.32300	-1181.17773				-244.69643	73.18837	-1285.98340	
141	1.400																												-371.48810	1241.44617	-1042.99768				-287.77881	1245.28162	-815.14948				-212.21512	937.13489	-1103.35144				106.04095	484.65668	-1196.10632	-282.22247	469.05637	-1181.02783				-244.68643	73.19517	-1285.98328	
142	1.410																												-371.05966	1241.01160	-1042.28308				-285.87094	1246.03662	-814.90039				-211.91327	937.10486	-1102.87976				106.47549	485.27493	-1196.83020	-282.18839	469.04541	-1180.58691				-244.63535	73.35572	-1285.50012	
143	1.420																												-370.47174	1240.21570	-1041.40247				-282.42596	1246.22681	-814.61023				-210.93761	937.12421	-1102.14319				106.42464	485.21042	-1197.18091	-281.61523	467.73193	-1179.69556				-244.61113	73.35337	-1285.49731	
144	1.430																												-369.72516	1239.65845	-1040.74707				-279.73529	1246.51782	-815.30804				-211.42041	936.79114	-1101.03894				106.42464	485.21042	-1197.18091	-281.28619	468.09723	-1178.57898				-244.60043	73.35100	-1285.49585	
145	1.440																												-368.73758	1239.57166	-1040.02271				-276.40082	1247.66467	-815.67566				-210.84274	937.06036	-1100.39453				106.42464	485.21042	-1197.18091	-281.04648	468.02133	-1177.76819				-244.58794	73.33560	-1285.49255	
146	1.450																												-367.84540	1239.02881	-1038.93823				-272.82504	1248.80457	-816.22717				-211.07774	937.29321	-1099.97864				106.72499	485.59781	-1197.38135	-281.08051	467.61920	-1177.18164				-244.57146	73.33959	-1285.49146	
147	1.460																												-366.40387	1238.61011	-1038.82153				-268.83041	1249.52515	-816.75507				-211.01089	937.23370	-1099.82043				106.71426	485.56546	-1197.73743	-280.97952	467.67056	-1176.71411				-244.56718	73.33631	-1285.49048	
148	1.470																												-364.59454	1237.68799	-1037.19434				-264.45181	1250.48853	-816.48541				-210.46321	937.08423	-1099.31641				107.20122	485.95578	-1197.97827	-280.69629	467.90192	-1175.79749				-243.69693	72.88127	-1285.68408	
149	1.480																												-363.79538	1237.37244	-1036.39685				-261.08530	1251.40833	-817.37708				-210.28915	937.10602	-1098.70996				107.68784	486.25769	-1198.19324	-280.53717	467.96658	-1174.98242				-243.50238	73.20558	-1285.40820	
150	1.490																												-363.03049	1237.20239	-1035.72815				-257.45190	1252.32837	-817.43976				-210.11481	937.16357	-1098.28467				107.71924	486.28287	-1198.19751	-280.58411	467.77518	-1174.94397				-243.47983	73.19370	-1285.40430	
151	1.500																												-360.92648	1236.48438	-1034.50891				-252.87889	1253.34180	-818.56830				-210.31190	936.88153	-1097.37280				108.17150	486.32071	-1198.31641	-280.43097	467.74820	-1174.59485				-243.47559	73.20050	-1285.40479	
152	1.510																												-358.59671	1235.56982	-1033.78723				-247.66605	1254.21643	-818.59979				-210.98222	937.06464	-1096.38867				108.20876	486.35056	-1198.32153	-279.90445	467.79166	-1173.77173				-243.49136	73.20758	-1285.40735	
153	1.520																												-357.88031	1235.85229	-1032.21326				-242.32739	1254.59827	-819.83264				-210.23590	936.86841	-1094.79700				108.89335	486.94501	-1198.68262	-279.29889	467.12552	-1172.18457				-243.49062	73.19666	-1285.40588	
154	1.530																												-356.16165	1235.37268	-1030.86316				-236.33263	1255.74146	-820.23157				-210.25815	936.80969	-1094.50793				108.94877	486.99200	-1198.69153	-279.55560	467.30853	-1171.79041				-243.47714	73.19621	-1285.40442	
155	1.540																												-354.39523	1235.55566	-1029.86230				-228.82361	1255.29663	-820.47833				-210.11832	936.90613	-1094.30115				109.42377	487.03546	-1198.79065	-279.08823	466.62421	-1170.66016				-243.46562	73.18453	-1285.40161	
156	1.550																												-348.92023	1233.98706	-1027.99854				-222.56953	1256.81555	-821.52814				-209.75296	937.10449	-1093.35706				109.66090	486.96432	-1198.52441	-279.28833	467.30096	-1169.25842				-244.33006	73.64361	-1285.20801	
157	1.560																												-350.54187	1235.92847	-1026.59106				-216.59415	1256.85864	-821.90692				-209.81421	936.99384	-1092.99048				110.27083	487.15973	-1198.71008	-278.98117	467.03659	-1169.22131				-243.48157	73.20837	-1285.40649	
158	1.570																												-343.33401	1233.51990	-1025.00000				-209.84102	1257.76062	-823.35797				-209.36075	937.04877	-1091.82629				110.58061	487.00638	-1198.67932	-278.70413	467.52933	-1167.89722				-243.48288	73.20313	-1285.40588	
159	1.580																												-339.79269	1232.93591	-1023.21954				-203.43359	1258.37805	-823.62543				-209.42169	937.59698	-1090.45032				110.87511	486.91299	-1198.63379	-278.03568	467.27606	-1166.41980				-244.34419	73.66282	-1285.21204	
160	1.590																												-336.49280	1232.71338	-1021.53564				-196.96301	1259.16565	-824.68744				-209.51884	937.88861	-1088.57727				110.98123	486.96375	-1198.63037	-277.94904	467.20724	-1166.37292				-244.34627	73.65538	-1285.21130	
161	1.600																												-333.22467	1232.75269	-1020.00842				-192.58234	1259.72375	-825.27014				-209.10826	938.05548	-1088.16980				111.25341	486.91254	-1198.48560	-278.02917	466.98627	-1166.16284				-244.35388	73.65897	-1285.21252	
